<svg xmlns:dc="http://purl.org/dc/elements/1.1/" xmlns:cc="http://creativecommons.org/ns#" xmlns:rdf="http://www.w3.org/1999/02/22-rdf-syntax-ns#" xmlns:svg="http://www.w3.org/2000/svg" xmlns="http://www.w3.org/2000/svg" xmlns:sodipodi="http://sodipodi.sourceforge.net/DTD/sodipodi-0.dtd" xmlns:inkscape="http://www.inkscape.org/namespaces/inkscape" version="1.1" x="0px" y="0px" viewBox="0 0 100 125"><g transform="translate(0,-952.36218)"><path d="m 44,960.36217 0,6 12,0 0,-6 z m -10.5,8 c -2.5274,0.255 -4.5,2.403 -4.5,5 l 0,66.00003 c 0,2.7698 2.230001,5 5,5 l 32,0 c 2.769989,0 5,-2.2302 5,-5 l 0,-66.00003 c 0,-2.77 -2.23001,-5 -5,-5 -10.81225,0 -21.73227,0 -32.5,0 z m 13.78125,16 c 3.902,-6e-4 7.871841,0 11.2187,0 1.3843,0 2.42034,1.7575 1.75,2.9687 l -8.34375,15.03133 5.59375,0 c 1.391761,0.01 2.41453,1.7946 1.71875,3 l -13,22 c -0.487269,0.8616 -1.67191,1.246 -2.57225,0.8347 -0.90034,-0.4114 -1.38518,-1.5586 -1.05275,-2.491 l 5.125,-15.3437 -6.21875,0 c -1.22953,0.01 -2.26403,-1.3459 -1.9375,-2.5313 l 6,-22.00003 c 0.40666,-0.9038 1.06909,-1.1854 1.7188,-1.4687 z" style="color:#000000;enable-background:accumulate;" fill="#000000" stroke="none" marker="none" visibility="visible" display="inline" overflow="visible"/></g><text x="0" y="115" fill="#000000" font-size="5px" font-weight="bold" font-family="'Helvetica Neue', Helvetica, Arial-Unicode, Arial, Sans-serif">Created by AFY Studio</text><text x="0" y="120" fill="#000000" font-size="5px" font-weight="bold" font-family="'Helvetica Neue', Helvetica, Arial-Unicode, Arial, Sans-serif">from the Noun Project</text></svg>