<svg xmlns="http://www.w3.org/2000/svg" version="1.1" viewBox="-5.0 -10.0 110.0 135.0">
 <path d="m77.934 41.723v-1.4336c0-0.60937 0.5-1.1094 1.1094-1.1094h1.4336c0.61328 0 1.1094 0.5 1.1094 1.1094v1.4336c0 0.62109-0.5 1.1211-1.1094 1.1211h-1.4336c-0.60938 0-1.1094-0.5-1.1094-1.1211zm-7.543 1.1211h1.4336c0.61328 0 1.1094-0.5 1.1094-1.1211v-1.4336c0-0.60937-0.5-1.1094-1.1094-1.1094h-1.4336c-0.62109 0-1.1211 0.5-1.1211 1.1094v1.4336c-0.003906 0.62109 0.49609 1.1211 1.1211 1.1211zm0 8.9922h1.4336c0.61328 0 1.1094-0.5 1.1094-1.1094v-1.4336c0-0.62109-0.5-1.1211-1.1094-1.1211h-1.4336c-0.62109 0-1.1211 0.5-1.1211 1.1211v1.4336c-0.003906 0.60547 0.49609 1.1094 1.1211 1.1094zm8.6523 0h1.4336c0.61328 0 1.1094-0.5 1.1094-1.1094v-1.4336c0-0.62109-0.5-1.1211-1.1094-1.1211h-1.4336c-0.60938 0-1.1094 0.5-1.1094 1.1211v1.4336c0 0.60547 0.5 1.1094 1.1094 1.1094zm-26.309 0h1.4336c0.60938 0 1.1211-0.5 1.1211-1.1094v-1.4336c0-0.62109-0.51172-1.1211-1.1211-1.1211h-1.4336c-0.60938 0-1.1094 0.5-1.1094 1.1211v1.4336c-0.003906 0.60547 0.49609 1.1094 1.1094 1.1094zm0-8.9922h1.4336c0.60938 0 1.1211-0.5 1.1211-1.1211v-1.4336c0-0.60937-0.51172-1.1094-1.1211-1.1094h-1.4336c-0.60938 0-1.1094 0.5-1.1094 1.1094v1.4336c-0.003906 0.62109 0.49609 1.1211 1.1094 1.1211zm9 17.977h1.4336c0.61328 0 1.1094-0.5 1.1094-1.1094v-1.4336c0-0.60938-0.5-1.1211-1.1094-1.1211h-1.4336c-0.62109 0-1.1211 0.51172-1.1211 1.1211v1.4336c-0.003906 0.60937 0.49609 1.1094 1.1211 1.1094zm0-17.977h1.4336c0.61328 0 1.1094-0.5 1.1094-1.1211v-1.4336c0-0.60937-0.5-1.1094-1.1094-1.1094h-1.4336c-0.62109 0-1.1211 0.5-1.1211 1.1094v1.4336c-0.003906 0.62109 0.49609 1.1211 1.1211 1.1211zm0 8.9922h1.4336c0.61328 0 1.1094-0.5 1.1094-1.1094v-1.4336c0-0.62109-0.5-1.1211-1.1094-1.1211h-1.4336c-0.62109 0-1.1211 0.5-1.1211 1.1211v1.4336c-0.003906 0.60547 0.49609 1.1094 1.1211 1.1094zm8.6562 8.9844h1.4336c0.61328 0 1.1094-0.5 1.1094-1.1094v-1.4336c0-0.60938-0.5-1.1211-1.1094-1.1211h-1.4336c-0.62109 0-1.1211 0.51172-1.1211 1.1211v1.4336c-0.003906 0.60937 0.49609 1.1094 1.1211 1.1094zm8.6523 0h1.4336c0.61328 0 1.1094-0.5 1.1094-1.1094v-1.4336c0-0.60938-0.5-1.1211-1.1094-1.1211h-1.4336c-0.60938 0-1.1094 0.51172-1.1094 1.1211v1.4336c0 0.60937 0.5 1.1094 1.1094 1.1094zm-17.309 15.359h1.4336c0.61328 0 1.1094-0.5 1.1094-1.1094v-1.4336c0-0.60938-0.5-1.1094-1.1094-1.1094h-1.4336c-0.62109 0-1.1211 0.5-1.1211 1.1094v1.4336c-0.003906 0.60938 0.49609 1.1094 1.1211 1.1094zm-9 0h1.4336c0.60938 0 1.1211-0.5 1.1211-1.1094v-1.4336c0-0.60938-0.51172-1.1094-1.1211-1.1094h-1.4336c-0.60938 0-1.1094 0.5-1.1094 1.1094v1.4336c-0.003906 0.60938 0.49609 1.1094 1.1094 1.1094zm26.309 0h1.4336c0.61328 0 1.1094-0.5 1.1094-1.1094v-1.4336c0-0.60938-0.5-1.1094-1.1094-1.1094h-1.4336c-0.60938 0-1.1094 0.5-1.1094 1.1094v1.4336c0 0.60938 0.5 1.1094 1.1094 1.1094zm10.824 0h1.4336c0.60938 0 1.1094-0.5 1.1094-1.1094v-1.4336c0-0.60938-0.5-1.1094-1.1094-1.1094h-1.4336c-0.60938 0-1.1094 0.5-1.1094 1.1094v1.4336c-0.003906 0.60938 0.49609 1.1094 1.1094 1.1094zm-51.945 0h1.4336c0.60938 0 1.1094-0.5 1.1094-1.1094v-1.4336c0-0.60938-0.5-1.1094-1.1094-1.1094h-1.4336c-0.60938 0-1.1211 0.5-1.1211 1.1094v1.4336c0 0.60938 0.51172 1.1094 1.1211 1.1094zm-8.6562 0h1.4336c0.60938 0 1.1094-0.5 1.1094-1.1094v-1.4336c0-0.60938-0.5-1.1094-1.1094-1.1094h-1.4336c-0.62109 0-1.1211 0.5-1.1211 1.1094v1.4336c0 0.60938 0.5 1.1094 1.1211 1.1094zm58.68-33.867h1v1c0 0.71094 0.58984 1.3008 1.3008 1.3008 0.72266 0 1.3008-0.58984 1.3008-1.3008v-1h1.0117c0.71094 0 1.2891-0.58984 1.2891-1.3008 0-0.72266-0.57812-1.3008-1.2891-1.3008h-1.0117v-1c0-0.72266-0.57812-1.3008-1.3008-1.3008-0.71094 0-1.3008 0.57812-1.3008 1.3008v1h-1c-0.71094 0-1.3008 0.57812-1.3008 1.3008 0 0.71094 0.58984 1.3008 1.3008 1.3008zm-76 33.867h1.4336c0.62109 0 1.1211-0.5 1.1211-1.1094v-1.4336c0-0.60938-0.5-1.1094-1.1211-1.1094h-1.4336c-0.60937 0-1.1094 0.5-1.1094 1.1094v1.4336c-0.003907 0.60938 0.49609 1.1094 1.1094 1.1094zm8.6562 0h1.4336c0.62109 0 1.1211-0.5 1.1211-1.1094v-1.4336c0-0.60938-0.5-1.1094-1.1211-1.1094h-1.4336c-0.60937 0-1.1094 0.5-1.1094 1.1094v1.4336c-0.003907 0.60938 0.49609 1.1094 1.1094 1.1094zm67.344-15.891h4.6094c0.71094 0 1.2891-0.57812 1.2891-1.3008 0-0.71094-0.57812-1.3008-1.2891-1.3008h-4.6094c-0.71094 0-1.3008 0.58984-1.3008 1.3008 0 0.72266 0.58984 1.3008 1.3008 1.3008zm-17.555 15.891h1.4336c0.61328 0 1.1094-0.5 1.1094-1.1094v-1.4336c0-0.60938-0.5-1.1094-1.1094-1.1094h-1.4336c-0.62109 0-1.1211 0.5-1.1211 1.1094v1.4336c-0.003906 0.60938 0.49609 1.1094 1.1211 1.1094zm-8.6562-48.703h1.4336c0.61328 0 1.1094-0.5 1.1094-1.1094v-1.4336c0-0.60938-0.5-1.1094-1.1094-1.1094h-1.4336c-0.62109 0-1.1211 0.5-1.1211 1.1094v1.4336c-0.003906 0.60937 0.49609 1.1094 1.1211 1.1094zm8.6562 0h1.4336c0.61328 0 1.1094-0.5 1.1094-1.1094v-1.4336c0-0.60938-0.5-1.1094-1.1094-1.1094h-1.4336c-0.62109 0-1.1211 0.5-1.1211 1.1094v1.4336c-0.003906 0.60937 0.49609 1.1094 1.1211 1.1094zm8.6523 0h1.4336c0.61328 0 1.1094-0.5 1.1094-1.1094l0.003906-1.4336c0-0.60938-0.5-1.1094-1.1094-1.1094h-1.4336c-0.60938 0-1.1094 0.5-1.1094 1.1094v1.4336c-0.003906 0.60937 0.49609 1.1094 1.1055 1.1094zm-67.098 33.344h1.4336c0.62109 0 1.1211-0.5 1.1211-1.1094v-1.4336c0-0.60938-0.5-1.1211-1.1211-1.1211h-1.4336c-0.60937 0-1.1094 0.51172-1.1094 1.1211v1.4336c-0.003907 0.60937 0.49609 1.1094 1.1094 1.1094zm40.789-33.344h1.4336c0.60938 0 1.1211-0.5 1.1211-1.1094v-1.4336c0-0.60938-0.51172-1.1094-1.1211-1.1094h-1.4336c-0.60938 0-1.1094 0.5-1.1094 1.1094v1.4336c-0.003906 0.60937 0.49609 1.1094 1.1094 1.1094zm37.133 0h1.4336c0.60938 0 1.1094-0.5 1.1094-1.1094v-1.4336c0-0.60938-0.5-1.1094-1.1094-1.1094h-1.4336c-0.60938 0-1.1094 0.5-1.1094 1.1094v1.4336c-0.003906 0.60937 0.49609 1.1094 1.1094 1.1094zm10.133-10.309v65.664c0 0.71094-0.57812 1.3008-1.3008 1.3008-0.042969 0-0.078125 0-0.10938-0.011718h-97.289c-0.71094 0-1.3008-0.57812-1.3008-1.2891v-65.664c0-0.71094 0.57812-1.3008 1.3008-1.3008 0.035157 0 0.078125 0 0.10938 0.011718h97.289c0.71094 0 1.2891 0.57812 1.2891 1.2891zm-2.6016 50.543h-94.797v13.824h94.801zm0-32.82h-94.797v30.234h94.801zm0-16.426h-94.797v13.82h94.801zm-44.664 42.355h1.4336c0.60938 0 1.1211-0.5 1.1211-1.1094v-1.4336c0-0.60938-0.51172-1.1211-1.1211-1.1211h-1.4336c-0.60938 0-1.1094 0.51172-1.1094 1.1211v1.4336c-0.003906 0.60937 0.49609 1.1094 1.1094 1.1094zm-32.133-33.344h1.4336c0.62109 0 1.1211-0.5 1.1211-1.1094v-1.4336c0-0.60938-0.5-1.1094-1.1211-1.1094h-1.4336c-0.60937 0-1.1094 0.5-1.1094 1.1094v1.4336c-0.003907 0.60937 0.49609 1.1094 1.1094 1.1094zm17.32 0h1.4336c0.60938 0 1.1094-0.5 1.1094-1.1094v-1.4336c0-0.60938-0.5-1.1094-1.1094-1.1094h-1.4336c-0.60938 0-1.1211 0.5-1.1211 1.1094v1.4336c0 0.60937 0.51172 1.1094 1.1211 1.1094zm-8.6562 0h1.4336c0.60938 0 1.1094-0.5 1.1094-1.1094l0.003906-1.4336c0-0.60938-0.5-1.1094-1.1094-1.1094h-1.4336c-0.62109 0-1.1211 0.5-1.1211 1.1094v1.4336c-0.003907 0.60937 0.49609 1.1094 1.1172 1.1094zm-17.32 0h1.4336c0.62109 0 1.1211-0.5 1.1211-1.1094v-1.4336c0-0.60938-0.5-1.1094-1.1211-1.1094h-1.4336c-0.60937 0-1.1094 0.5-1.1094 1.1094v1.4336c-0.003907 0.60937 0.49609 1.1094 1.1094 1.1094zm17.32 15.367h1.4336c0.60938 0 1.1094-0.5 1.1094-1.1211v-1.4336c0-0.60937-0.5-1.1094-1.1094-1.1094h-1.4336c-0.62109 0-1.1211 0.5-1.1211 1.1094v1.4336c0 0.62109 0.5 1.1211 1.1211 1.1211zm8.6562 17.977h1.4336c0.60938 0 1.1094-0.5 1.1094-1.1094v-1.4336c0-0.60938-0.5-1.1211-1.1094-1.1211h-1.4336c-0.60938 0-1.1211 0.51172-1.1211 1.1211v1.4336c0 0.60937 0.51172 1.1094 1.1211 1.1094zm-8.6562-8.9844h1.4336c0.60938 0 1.1094-0.5 1.1094-1.1094v-1.4336c0-0.62109-0.5-1.1211-1.1094-1.1211h-1.4336c-0.62109 0-1.1211 0.5-1.1211 1.1211v1.4336c0 0.60547 0.5 1.1094 1.1211 1.1094zm8.6562-8.9922h1.4336c0.60938 0 1.1094-0.5 1.1094-1.1211v-1.4336c0-0.60937-0.5-1.1094-1.1094-1.1094h-1.4336c-0.60938 0-1.1211 0.5-1.1211 1.1094v1.4336c0 0.62109 0.51172 1.1211 1.1211 1.1211zm0 8.9922h1.4336c0.60938 0 1.1094-0.5 1.1094-1.1094v-1.4336c0-0.62109-0.5-1.1211-1.1094-1.1211h-1.4336c-0.60938 0-1.1211 0.5-1.1211 1.1211v1.4336c0 0.60547 0.51172 1.1094 1.1211 1.1094zm-25.977 0h1.4336c0.62109 0 1.1211-0.5 1.1211-1.1094v-1.4336c0-0.62109-0.5-1.1211-1.1211-1.1211h-1.4336c-0.60937 0-1.1094 0.5-1.1094 1.1211v1.4336c-0.003907 0.60547 0.49609 1.1094 1.1094 1.1094zm17.32 8.9844h1.4336c0.60938 0 1.1094-0.5 1.1094-1.1094v-1.4336c0-0.60938-0.5-1.1211-1.1094-1.1211h-1.4336c-0.62109 0-1.1211 0.51172-1.1211 1.1211v1.4336c0 0.60937 0.5 1.1094 1.1211 1.1094zm-8.6641 0h1.4336c0.62109 0 1.1211-0.5 1.1211-1.1094v-1.4336c0-0.60938-0.5-1.1211-1.1211-1.1211h-1.4336c-0.60937 0-1.1094 0.51172-1.1094 1.1211v1.4336c-0.003907 0.60937 0.49609 1.1094 1.1094 1.1094zm-8.6562-17.977h1.4336c0.62109 0 1.1211-0.5 1.1211-1.1211v-1.4336c0-0.60937-0.5-1.1094-1.1211-1.1094h-1.4336c-0.60937 0-1.1094 0.5-1.1094 1.1094v1.4336c-0.003907 0.62109 0.49609 1.1211 1.1094 1.1211zm8.6562 0h1.4336c0.62109 0 1.1211-0.5 1.1211-1.1211v-1.4336c0-0.60937-0.5-1.1094-1.1211-1.1094h-1.4336c-0.60937 0-1.1094 0.5-1.1094 1.1094v1.4336c-0.003907 0.62109 0.49609 1.1211 1.1094 1.1211zm0 8.9922h1.4336c0.62109 0 1.1211-0.5 1.1211-1.1094v-1.4336c0-0.62109-0.5-1.1211-1.1211-1.1211h-1.4336c-0.60937 0-1.1094 0.5-1.1094 1.1211v1.4336c-0.003907 0.60547 0.49609 1.1094 1.1094 1.1094z"/>
<text x="0.0" y="117.5" font-size="5.0" font-weight="bold" font-family="Arbeit Regular, Helvetica, Arial-Unicode, Arial, Sans-serif" fill="#000000">Created by Ainul abib</text><text x="0.0" y="122.5" font-size="5.0" font-weight="bold" font-family="Arbeit Regular, Helvetica, Arial-Unicode, Arial, Sans-serif" fill="#000000">from Noun Project</text></svg>