<svg xmlns="http://www.w3.org/2000/svg" data-name="레이어 1" viewBox="0 0 27.59 92.6875" x="0px" y="0px"><defs><style>
      .cls-1 {
        stroke-width: 0px;
      }
    </style></defs><path class="cls-1" d="m27.59,6.03c0,1.68-1.11,3.2-2.97,4.4v36.26c-1.5,1.12-3.74,2-6.39,2.48V12.69c-1.39.23-2.88.37-4.44.37C6.06,13.06,0,9.97,0,6.03v37.51c0,2.66,2.77,4.93,6.95,6.12v23.99c0,.28.22.5.5.5s.5-.22.5-.5v-23.73c1.77.41,3.74.65,5.85.65,1.56,0,3.05-.13,4.44-.37.95-.16,1.85-.37,2.69-.63v15.71c0,.28.22.5.5.5s.5-.22.5-.5v-15.85c0-.06-.01-.12-.04-.18,1.03-.37,1.95-.82,2.73-1.32,1.66-1.07,2.71-2.4,2.92-3.86,0-.03.02-.06.02-.09v-.1c.01-.12.03-.23.03-.34s-.02-.23-.03-.34l.03-37.17s0,0,0,0Z"/><path class="cls-1" d="m1,6.03c0,3.27,5.86,6.03,12.79,6.03s12.79-2.76,12.79-6.03S20.73,0,13.79,0,1,2.76,1,6.03ZM13.79,1.46c5.13,0,9.29,2.04,9.29,4.56s-4.16,4.56-9.29,4.56-9.29-2.04-9.29-4.56S8.66,1.46,13.79,1.46Z"/><path class="cls-1" d="m19.93,16.96v6.27c0,.83.67,1.5,1.5,1.5s1.5-.67,1.5-1.5v-6.27c0-.83-.67-1.5-1.5-1.5s-1.5.67-1.5,1.5Z"/><path class="cls-1" d="m21.43,36.48c-.83,0-1.5.67-1.5,1.5v6.27c0,.83.67,1.5,1.5,1.5s1.5-.67,1.5-1.5v-6.27c0-.83-.67-1.5-1.5-1.5Z"/><text x="0" y="89.15" fill="#000000" font-size="5px" font-weight="bold" font-family="'Helvetica Neue', Helvetica, Arial-Unicode, Arial, Sans-serif">Created by Jongbeom Kim</text><text x="0" y="94.15" fill="#000000" font-size="5px" font-weight="bold" font-family="'Helvetica Neue', Helvetica, Arial-Unicode, Arial, Sans-serif">from the Noun Project</text></svg>