<svg xmlns="http://www.w3.org/2000/svg" viewBox="0 0 78 97.5" x="0px" y="0px"><path d="M69,38h-24v-9c0-.55-.45-1-1-1s-1,.45-1,1v20c0,.55,.45,1,1,1s1-.45,1-1v-9h24c.55,0,1-.45,1-1s-.45-1-1-1Z"/><path d="M34,28c-.55,0-1,.45-1,1v9H9c-.55,0-1,.45-1,1s.45,1,1,1h24v9c0,.55,.45,1,1,1s1-.45,1-1V29c0-.55-.45-1-1-1Z"/><text x="0" y="93" fill="#000000" font-size="5px" font-weight="bold" font-family="'Helvetica Neue', Helvetica, Arial-Unicode, Arial, Sans-serif">Created by Rahmat Hidayat</text><text x="0" y="98" fill="#000000" font-size="5px" font-weight="bold" font-family="'Helvetica Neue', Helvetica, Arial-Unicode, Arial, Sans-serif">from the Noun Project</text></svg>