<svg xmlns="http://www.w3.org/2000/svg" xmlns:xlink="http://www.w3.org/1999/xlink" version="1.1" x="0px" y="0px" viewBox="0 0 1580 1975" style="enable-background:new 0 0 1580 1580;" xml:space="preserve"><g><path d="M790,1034.9c-17.3,0-34-6.2-47.1-17.4c-13.9-11.9-21.7-27.6-27.5-41.3c-18.1-43-27.3-89.8-27.3-139.1   c0-79.8,24.7-154.6,68.5-209.3c-27.7-22.7-58.9-34.6-91.5-34.6s-63.9,11.9-91.5,34.6c43.8,54.7,68.5,129.6,68.5,209.3   c0,48.3-9,94.7-26.8,137.9c-5.8,14.1-13.6,30.2-27.7,42.3c-13.2,11.4-30.1,17.7-47.5,17.7c-0.1,0-0.2,0-0.3,0   c-17.5-0.1-34.4-6.5-47.6-18c-13.4-11.8-21-27.1-26.7-40.5c-17.9-42.4-27.3-90.5-27.3-139.2c0-79.8,24.7-154.6,68.5-209.3   c-27.7-22.7-58.9-34.6-91.5-34.6c-46.5,0-90.6,24.5-124.3,69c-35.2,46.5-54.5,108.6-54.5,175c0,13.3-10.8,24-24,24H46   c-13.3,0-24-10.8-24-24s10.8-24,24-24h143c4.3-67.8,26.4-130.9,63.5-180c20.6-27.3,44.8-48.8,71.9-63.9   c28.6-16,59.1-24.1,90.7-24.1c26.6,0,52.6,5.8,77.3,17.3c16.8,7.8,32.8,18.1,47.6,30.7c14.9-12.6,30.8-22.9,47.6-30.7   c24.8-11.5,50.8-17.3,77.3-17.3s52.6,5.8,77.3,17.3c16.8,7.8,32.8,18.1,47.6,30.7c14.8-12.6,30.8-22.9,47.6-30.7   c24.8-11.5,50.8-17.3,77.3-17.3c26.6,0,52.6,5.8,77.3,17.3c16.8,7.8,32.8,18.1,47.6,30.7c14.9-12.6,30.8-22.9,47.6-30.7   c24.7-11.5,50.8-17.3,77.3-17.3c31.5,0,62,8.1,90.7,24.1c27.1,15.1,51.3,36.6,71.9,63.9c37.1,49,59.3,112.2,63.5,180h143   c13.3,0,24,10.8,24,24s-10.8,24-24,24h-166.3c-13.3,0-24-10.8-24-24c0-66.4-19.4-128.5-54.6-175c-33.7-44.5-77.8-69-124.3-69   c-32.6,0-63.9,11.9-91.5,34.6c43.8,54.7,68.5,129.6,68.5,209.4c0,24.9-2.2,48.9-6.6,71.2c-5.1,26.1-11,47.3-17.9,64.8   c-11.8,29.9-32,50.7-56.8,58.4c-20.7,6.4-43.6,3.1-61.2-9c-15.8-10.9-24.8-26.7-30.3-37.7C942.9,933,937.5,876,937.5,837.4   c0-79.8,24.7-154.6,68.5-209.4c-27.7-22.7-58.9-34.6-91.5-34.6S850.6,605.3,823,628c43.8,54.7,68.4,129.6,68.4,209.4   c0,49.3-9.2,96.1-27.4,139.2c-5.8,13.7-13.6,29.3-27.3,41.2C824,1028.7,807.3,1034.9,790,1034.9L790,1034.9z M790,662.9   c-34.5,45.8-53.9,107.8-53.9,174.2c0,42.2,8.2,83.8,23.6,120.4c3.6,8.6,8.2,18.2,14.5,23.5c4.4,3.7,10.2,5.9,15.9,5.9l0,0   c5.7,0,11.5-2.2,15.9-5.9c6.2-5.3,10.8-14.8,14.4-23.4C835.8,921,844,879.3,844,837.1C843.9,770.7,824.5,708.7,790,662.9z    M540.1,662.9c-34.5,45.8-53.9,107.8-53.9,174.2c0,42.3,8.1,84,23.5,120.6c3.5,8.4,8,17.7,14.1,23.1c4.4,3.9,10.3,6.1,16.2,6.1   c5.9,0.1,11.8-2.2,16.2-6c6.4-5.5,10.8-14.8,14.6-24.2c15.3-37.3,23.1-77.5,23.1-119.6C594,770.7,574.6,708.7,540.1,662.9z    M1039.9,662.9c-34.5,45.8-53.9,107.8-53.9,174.2c0,47.4,9.3,92.3,26.1,126.5c4.8,9.8,9.4,15.9,14.4,19.3   c5.4,3.7,13.2,4.8,19.7,2.8c14.9-4.6,23.4-22.7,26.4-30.3c5.8-14.7,10.9-33.2,15.4-56.4c3.8-19.3,5.7-40.1,5.7-62   C1093.8,770.7,1074.4,708.7,1039.9,662.9z"/></g><text x="0" y="1595" fill="#000000" font-size="5px" font-weight="bold" font-family="'Helvetica Neue', Helvetica, Arial-Unicode, Arial, Sans-serif">Created by Iconbunny</text><text x="0" y="1600" fill="#000000" font-size="5px" font-weight="bold" font-family="'Helvetica Neue', Helvetica, Arial-Unicode, Arial, Sans-serif">from the Noun Project</text></svg>