<svg xmlns="http://www.w3.org/2000/svg" data-name="Layer 1" viewBox="0 0 1000 1250" x="0px" y="0px"><title>2606-Led</title><path d="M612.37,457.34H387.63a16,16,0,0,1-16-16v-229a128.37,128.37,0,1,1,256.74,0v229A16,16,0,0,1,612.37,457.34Zm-208.74-32H596.37v-213a96.37,96.37,0,1,0-192.74,0Z"/><path d="M558.32,457.34a16,16,0,0,1-16-16V382.65l-21.81,12.82a16,16,0,0,1-13.82,1.16l-49-18.72v63.43a16,16,0,0,1-32,0V354.68a16,16,0,0,1,21.71-14.95L510.92,364l39.29-23.1a16,16,0,0,1,24.11,13.79v86.66A16,16,0,0,1,558.32,457.34Z"/><path d="M624.17,567.44H375.83a71.05,71.05,0,1,1,0-142.1H624.17a71.05,71.05,0,1,1,0,142.1ZM375.83,457.34a39,39,0,1,0,0,78.1H624.17a39,39,0,1,0,0-78.1Z"/><path d="M615.79,916H548.87a16,16,0,0,1-16-16V551.45a16,16,0,0,1,32,0V884h34.92V551.44a16,16,0,0,1,32,0V900A16,16,0,0,1,615.79,916Z"/><path d="M451.13,916H384.21a16,16,0,0,1-16-16V551.44a16,16,0,0,1,32,0V884h34.92V551.45a16,16,0,0,1,32,0V900A16,16,0,0,1,451.13,916Z"/><text x="0" y="1015" fill="#000000" font-size="5px" font-weight="bold" font-family="'Helvetica Neue', Helvetica, Arial-Unicode, Arial, Sans-serif">Created by IYIKON</text><text x="0" y="1020" fill="#000000" font-size="5px" font-weight="bold" font-family="'Helvetica Neue', Helvetica, Arial-Unicode, Arial, Sans-serif">from the Noun Project</text></svg>