<svg xmlns="http://www.w3.org/2000/svg" version="1.1" viewBox="-5.0 -10.0 110.0 135.0">
 <g>
  <path d="m71.918 64.473h-4.5078c-2.5547 0-4.9414-1.2695-6.3672-3.3906h-22.094c-1.4258 2.1172-3.8086 3.3906-6.3594 3.3906h-4.5078c-5.1719 0-9.9492-2.7578-12.535-7.2344-2.5859-4.4805-2.5859-9.9961 0-14.477 2.5859-4.4766 7.3633-7.2344 12.535-7.2344h4.5117-0.003906c2.5508 0 4.9336 1.2734 6.3594 3.3906h22.094c1.4258-2.1211 3.8125-3.3906 6.3672-3.3906h4.5078c5.1719 0 9.9492 2.7578 12.535 7.2344 2.5859 4.4805 2.5859 9.9961 0 14.477-2.5859 4.4766-7.3633 7.2344-12.535 7.2344zm-33.551-5.4727h23.258c0.37891 0 0.72656 0.20312 0.91016 0.53516 0.98828 1.7617 2.8516 2.8555 4.875 2.8555h4.5078c6.8438 0 12.391-5.5469 12.391-12.391s-5.5469-12.391-12.391-12.391h-4.5078c-2.0234 0-3.8867 1.0938-4.875 2.8555-0.18359 0.33203-0.53125 0.53516-0.91016 0.53516h-23.258c-0.37891 0-0.72656-0.20312-0.91016-0.53516-0.98828-1.7617-2.8477-2.8516-4.8672-2.8555h-4.5078c-6.8438 0-12.391 5.5469-12.391 12.391s5.5469 12.391 12.391 12.391h4.5117-0.003906c2.0195-0.003906 3.8789-1.0938 4.8672-2.8555 0.18359-0.33203 0.53125-0.53516 0.91016-0.53516z"/>
  <path d="m66.719 64.441c-0.27734 0-0.53906-0.10938-0.73438-0.30469-0.19531-0.19531-0.30469-0.46094-0.30469-0.73828v-26.789c0-0.57422 0.46484-1.043 1.0391-1.043s1.043 0.46875 1.043 1.043v26.789c0 0.27734-0.10938 0.54297-0.30469 0.73828-0.19531 0.19531-0.46094 0.30469-0.73828 0.30469z"/>
  <path d="m38.367 61.082c-0.27734 0.003907-0.54297-0.10938-0.73828-0.30469-0.19531-0.19531-0.30469-0.45703-0.30469-0.73438v-20.086c0-0.57422 0.46484-1.0391 1.043-1.0391 0.57422 0 1.0391 0.46484 1.0391 1.0391v20.086c0 0.27734-0.10938 0.53906-0.30469 0.73438-0.19531 0.19531-0.46094 0.30859-0.73437 0.30469z"/>
  <path d="m57.875 61.082c-0.27344 0.003907-0.53906-0.10938-0.73438-0.30469-0.19531-0.19531-0.30469-0.45703-0.30469-0.73438v-20.086c0-0.57422 0.46484-1.0391 1.0391-1.0391 0.57812 0 1.043 0.46484 1.043 1.0391v20.086c0 0.27734-0.10938 0.53906-0.30469 0.73438-0.19531 0.19531-0.46094 0.30859-0.73828 0.30469z"/>
  <path d="m52.531 61.082c-0.27734 0.003907-0.54297-0.10938-0.73828-0.30469-0.19531-0.19531-0.30469-0.45703-0.30469-0.73438v-20.086c0-0.57422 0.46484-1.0391 1.043-1.0391 0.57422 0 1.0391 0.46484 1.0391 1.0391v20.086c0 0.27734-0.10937 0.53906-0.30469 0.73438-0.19531 0.19531-0.46094 0.30859-0.73438 0.30469z"/>
  <path d="m14.656 51.043h-12.574c-0.57422 0-1.0391-0.46875-1.0391-1.043s0.46484-1.043 1.0391-1.043h12.574c0.57422 0 1.0391 0.46875 1.0391 1.043s-0.46484 1.043-1.0391 1.043z"/>
  <path d="m97.918 51.043h-12.574c-0.57422 0-1.0391-0.46875-1.0391-1.043s0.46484-1.043 1.0391-1.043h12.574c0.57422 0 1.0391 0.46875 1.0391 1.043s-0.46484 1.043-1.0391 1.043z"/>
 </g>
<text x="0.0" y="117.5" font-size="5.0" font-weight="bold" font-family="Arbeit Regular, Helvetica, Arial-Unicode, Arial, Sans-serif" fill="#000000">Created by trimenz</text><text x="0.0" y="122.5" font-size="5.0" font-weight="bold" font-family="Arbeit Regular, Helvetica, Arial-Unicode, Arial, Sans-serif" fill="#000000">from Noun Project</text></svg>