<svg xmlns="http://www.w3.org/2000/svg" version="1.1" viewBox="-5.0 -10.0 110.0 135.0">
 <path d="m63.898 12.898h-27.801l-4.5 12v33l3 1.3984h30.699l3-1.3984v-33zm-13.898 19.5c-3.1992 0-5.8008-2.6016-5.8008-5.8008 0-3.1992 2.6016-5.8008 5.8008-5.8008s5.8008 2.6016 5.8008 5.8008c0 3.2031-2.6016 5.8008-5.8008 5.8008z"/>
 <path d="m36.699 60h26.5v1.8984h-26.5z"/>
 <path d="m40.602 62.398h-1.9023v11.602l1.4023 2.1992v10.902h2.0977v-10.902l1.4023-2.1992v-11.602z"/>
 <path d="m58.301 62.398h-1.9023v11.602l1.3008 2.1992v10.902h2.1992v-10.902l1.4023-2.1992v-11.602z"/>
 <path d="m49.5 62.398h-2v11.602l1.3984 2.1992v10.902h2.2031v-10.902l1.2969-2.1992v-11.602z"/>
<text x="0.0" y="117.5" font-size="5.0" font-weight="bold" font-family="Arbeit Regular, Helvetica, Arial-Unicode, Arial, Sans-serif" fill="#000000">Created by Marco Livolsi</text><text x="0.0" y="122.5" font-size="5.0" font-weight="bold" font-family="Arbeit Regular, Helvetica, Arial-Unicode, Arial, Sans-serif" fill="#000000">from Noun Project</text></svg>