<svg xmlns="http://www.w3.org/2000/svg" xmlns:xlink="http://www.w3.org/1999/xlink" version="1.1" x="0px" y="0px" viewBox="0 0 32 40" enable-background="new 0 0 32 32" xml:space="preserve"><g><path d="M5,19c-1.6543,0-3-1.3457-3-3s1.3457-3,3-3s3,1.3457,3,3S6.6543,19,5,19z M5,15c-0.5513,0-1,0.4482-1,1s0.4487,1,1,1   s1-0.4482,1-1S5.5513,15,5,15z"/><path d="M27,19c-1.6543,0-3-1.3457-3-3s1.3457-3,3-3s3,1.3457,3,3S28.6543,19,27,19z M27,15c-0.5513,0-1,0.4482-1,1s0.4487,1,1,1   s1-0.4482,1-1S27.5513,15,27,15z"/><path d="M9,17H7c-0.5522,0-1-0.4473-1-1s0.4478-1,1-1h2c0.5522,0,1,0.4473,1,1S9.5522,17,9,17z"/><path d="M25,17h-2c-0.5522,0-1-0.4473-1-1s0.4478-1,1-1h2c0.5522,0,1,0.4473,1,1S25.5522,17,25,17z"/><path d="M16,24c-4.4111,0-8-3.5889-8-8s3.5889-8,8-8s8,3.5889,8,8S20.4111,24,16,24z M16,10c-3.3086,0-6,2.6914-6,6s2.6914,6,6,6   s6-2.6914,6-6S19.3086,10,16,10z"/><path d="M13.5,18.5c-0.5522,0-1-0.4473-1-1v-3c0-0.5527,0.4478-1,1-1s1,0.4473,1,1v3C14.5,18.0527,14.0522,18.5,13.5,18.5z"/><path d="M15,17h-3c-0.5522,0-1-0.4473-1-1s0.4478-1,1-1h3c0.5522,0,1,0.4473,1,1S15.5522,17,15,17z"/><path d="M20,17h-2c-0.5522,0-1-0.4473-1-1s0.4478-1,1-1h2c0.5522,0,1,0.4473,1,1S20.5522,17,20,17z"/></g><text x="0" y="47" fill="#000000" font-size="5px" font-weight="bold" font-family="'Helvetica Neue', Helvetica, Arial-Unicode, Arial, Sans-serif">Created by M. Oki Orlando</text><text x="0" y="52" fill="#000000" font-size="5px" font-weight="bold" font-family="'Helvetica Neue', Helvetica, Arial-Unicode, Arial, Sans-serif">from the Noun Project</text></svg>